<?xml version="1.0" encoding="UTF-8" standalone="no"?>
<svg xmlns="http://www.w3.org/2000/svg" viewBox="0 0 500 500" width="500" height="500">
  <!-- Contour du ninja -->
  <path d="M250,20C121.9,20,20,121.9,20,250s101.9,230,230,230s230-101.9,230-230S378.1,20,250,20z" fill="#2C2C2C"/>
  
  <!-- Bandeau rouge -->
  <path d="M430,180c0,0-50-50-180-50S70,180,70,180v60c0,0,50,50,180,50s180-50,180-50V180z" fill="#FF6B00"/>
  
  <!-- Visage -->
  <ellipse cx="250" cy="240" rx="120" ry="100" fill="#F4D7BE"/>
  
  <!-- Noeud du bandeau -->
  <path d="M70,210c0,0-30,0-50,30s0,60,0,60s30,0,50-30S70,210,70,210z" fill="#FF6B00"/>
  
  <!-- Yeux -->
  <circle cx="200" cy="240" r="25" fill="#FFFFFF"/>
  <circle cx="300" cy="240" r="25" fill="#FFFFFF"/>
  <circle cx="200" cy="240" r="15" fill="#000000"/>
  <circle cx="300" cy="240" r="15" fill="#000000"/>
  <circle cx="195" cy="235" r="5" fill="#FFFFFF"/>
  <circle cx="295" cy="235" r="5" fill="#FFFFFF"/>
  
  <!-- Sourire -->
  <path d="M220,280c20,20,40,20,60,0" fill="none" stroke="#2C2C2C" stroke-width="8" stroke-linecap="round"/>
  
  <!-- Bras droit avec pouce levé -->
  <path d="M380,300c20,20,30,50,20,70s-30,10-40,0s-10-30-10-30l-20-30" fill="#2C2C2C"/>
  <path d="M380,300c0,0,10-20,30-10s10,30,0,40s-20,0-20,0" fill="#2C2C2C"/>
</svg>