<?xml version="1.0" encoding="UTF-8"?>
<svg width="260" height="260" viewBox="0 0 260 260" fill="none" xmlns="http://www.w3.org/2000/svg">
  <!-- Ninja Body -->
  <circle cx="128" cy="90" r="60" fill="#2C2C2C" stroke="#000000" stroke-width="4"/>
  
  <!-- Ninja Face -->
  <ellipse cx="128" cy="90" rx="30" ry="20" fill="#FFCCA7"/>
  
  <!-- Ninja Eyes -->
  <circle cx="118" cy="85" r="6" fill="#000000"/>
  <circle cx="138" cy="85" r="6" fill="#000000"/>
  <circle cx="118" cy="83" r="2" fill="#FFFFFF"/>
  <circle cx="138" cy="83" r="2" fill="#FFFFFF"/>
  
  <!-- Ninja Smile -->
  <path d="M118 100 Q128 110 138 100" stroke="#000000" stroke-width="3" fill="none"/>
  
  <!-- Headband -->
  <path d="M88 75 Q128 55 168 75" stroke="#000000" stroke-width="3" fill="#2C2C2C"/>
  <rect x="88" y="75" width="80" height="15" fill="#FF3B30" stroke="#000000" stroke-width="3"/>
  
  <!-- Headband Knot -->
  <path d="M168 82 L188 70 L188 90 Z" fill="#FF3B30" stroke="#000000" stroke-width="3"/>
  
  <!-- Thumbs Up Hand -->
  <path d="M160 90 Q170 80 180 90 L180 110 L160 110 Z" fill="#2C2C2C" stroke="#000000" stroke-width="3"/>
  <rect x="175" y="90" width="10" height="20" fill="#2C2C2C" stroke="#000000" stroke-width="3" rx="5"/>
  
  <!-- Text MarkEasy -->
  <text x="25" y="180" font-family="Arial, sans-serif" font-weight="bold" font-size="42">
    <tspan fill="#000000">Mark</tspan><tspan fill="#FF8C00">Easy</tspan>
  </text>
</svg>