<?xml version="1.0" encoding="UTF-8"?>
<svg xmlns="http://www.w3.org/2000/svg" fill="none" viewBox="0 0 32 32">
  <path fill="#F26207" d="M7.3 6.56c-.778 0-1.41.632-1.41 1.41v1.9H1.62c-.894 0-1.62.726-1.62 1.62v10.99c0 .894.726 1.62 1.62 1.62h21.22c.894 0 1.62-.726 1.62-1.62v-2.07h5.89c.895 0 1.62-.726 1.62-1.62V8.16c0-.894-.725-1.62-1.62-1.62L7.3 6.56Zm13.2 2.78c.894 0 1.62.726 1.62 1.62v4.18c0 .893-.726 1.62-1.62 1.62h-2.74c-.447 0-.853-.182-1.147-.476l-1.48-1.48c-.17-.17-.266-.4-.266-.642 0-.24.096-.472.266-.642l1.48-1.48c.293-.294.7-.477 1.147-.477h2.74Z"/>
</svg>