<svg xmlns="http://www.w3.org/2000/svg" width="32" height="32" viewBox="0 0 32 32" fill="none">
  <path d="M7 5.5C7 4.67157 7.67157 4 8.5 4H23.5C24.3284 4 25 4.67157 25 5.5V26.5C25 27.3284 24.3284 28 23.5 28H8.5C7.67157 28 7 27.3284 7 26.5V5.5Z" fill="#F26207"/>
  <path d="M14.6105 19.8535C14.6105 20.5947 14.1588 21.0526 13.3965 21.0526C12.6342 21.0526 12.1825 20.5947 12.1825 19.8535V19.5439H10.4912V19.8364C10.4912 21.6649 11.6526 22.6667 13.3965 22.6667C15.1404 22.6667 16.3018 21.6649 16.3018 19.8364V12.1637C16.3018 10.3351 15.1404 9.33333 13.3965 9.33333C11.6526 9.33333 10.4912 10.3351 10.4912 12.1637V12.4731H12.1825V12.1637C12.1825 11.4225 12.6342 10.9474 13.3965 10.9474C14.1588 10.9474 14.6105 11.4225 14.6105 12.1637V19.8535Z" fill="white"/>
  <path d="M19.8947 13.0175C19.1323 13.0175 18.6806 12.5424 18.6806 11.8012V11.4917H17V11.7842C17 13.6128 18.1614 14.6316 19.9053 14.6316C21.6491 14.6316 22.8105 13.6128 22.8105 11.7842C22.8105 10.2339 21.8551 9.52631 20.4737 9.09064C19.3778 8.74678 19.0632 8.55556 19.0632 8.09942C19.0632 7.70175 19.3608 7.36842 19.8947 7.36842C20.4286 7.36842 20.7263 7.70175 20.7263 8.44298V8.5965H22.4175V8.3743C22.4175 6.94152 21.3386 5.75439 19.9053 5.75439C18.4719 5.75439 17.3246 6.94152 17.3246 8.4269C17.3246 10.0468 18.2801 10.7368 19.6614 11.1725C20.7573 11.5164 21.0719 11.7585 21.0719 12.1801C21.0719 12.6491 20.7743 13.0175 19.8947 13.0175Z" fill="white"/>
</svg>