<svg xmlns="http://www.w3.org/2000/svg" style="display: none;">
  <defs>
    <!-- Définitions des gradients -->
    <linearGradient id="primaryGradient" x1="0%" y1="0%" x2="100%" y2="100%">
      <stop offset="0%" style="stop-color:#FF8C00;stop-opacity:1" />
      <stop offset="100%" style="stop-color:#FF6B00;stop-opacity:1" />
    </linearGradient>
    
    <linearGradient id="successGradient" x1="0%" y1="0%" x2="100%" y2="100%">
      <stop offset="0%" style="stop-color:#28a745;stop-opacity:1" />
      <stop offset="100%" style="stop-color:#20c997;stop-opacity:1" />
    </linearGradient>
    
    <linearGradient id="warningGradient" x1="0%" y1="0%" x2="100%" y2="100%">
      <stop offset="0%" style="stop-color:#ffc107;stop-opacity:1" />
      <stop offset="100%" style="stop-color:#fd7e14;stop-opacity:1" />
    </linearGradient>
    
    <linearGradient id="dangerGradient" x1="0%" y1="0%" x2="100%" y2="100%">
      <stop offset="0%" style="stop-color:#dc3545;stop-opacity:1" />
      <stop offset="100%" style="stop-color:#e83e8c;stop-opacity:1" />
    </linearGradient>
  </defs>

  <!-- Icône Dashboard -->
  <symbol id="icon-dashboard" viewBox="0 0 24 24">
    <rect x="2" y="2" width="9" height="9" rx="2" fill="url(#primaryGradient)"/>
    <rect x="13" y="2" width="9" height="4" rx="2" fill="url(#primaryGradient)"/>
    <rect x="13" y="8" width="9" height="4" rx="2" fill="url(#primaryGradient)"/>
    <rect x="2" y="13" width="9" height="9" rx="2" fill="url(#primaryGradient)"/>
    <rect x="13" y="14" width="9" height="8" rx="2" fill="url(#primaryGradient)"/>
  </symbol>

  <!-- Icône Boutique -->
  <symbol id="icon-boutique" viewBox="0 0 24 24">
    <path d="M19 7h-3V6a4 4 0 0 0-8 0v1H5a1 1 0 0 0-1 1v11a3 3 0 0 0 3 3h10a3 3 0 0 0 3-3V8a1 1 0 0 0-1-1zM10 6a2 2 0 0 1 4 0v1h-4V6zm8 13a1 1 0 0 1-1 1H7a1 1 0 0 1-1-1V9h2v1a1 1 0 0 0 2 0V9h4v1a1 1 0 0 0 2 0V9h2v10z" fill="url(#primaryGradient)"/>
  </symbol>

  <!-- Icône Campagne -->
  <symbol id="icon-campaign" viewBox="0 0 24 24">
    <path d="M12 2C6.48 2 2 6.48 2 12s4.48 10 10 10 10-4.48 10-10S17.52 2 12 2zm-2 15l-5-5 1.41-1.41L10 14.17l7.59-7.59L19 8l-9 9z" fill="url(#successGradient)"/>
  </symbol>

  <!-- Icône Client -->
  <symbol id="icon-client" viewBox="0 0 24 24">
    <path d="M12 12c2.21 0 4-1.79 4-4s-1.79-4-4-4-4 1.79-4 4 1.79 4 4 4zm0 2c-2.67 0-8 1.34-8 4v2h16v-2c0-2.66-5.33-4-8-4z" fill="url(#primaryGradient)"/>
  </symbol>

  <!-- Icône Produit -->
  <symbol id="icon-product" viewBox="0 0 24 24">
    <path d="M7 18c-1.1 0-2 .9-2 2s.9 2 2 2 2-.9 2-2-.9-2-2-2zM1 2v2h2l3.6 7.59-1.35 2.45c-.16.28-.25.61-.25.96 0 1.1.9 2 2 2h12v-2H7.42c-.14 0-.25-.11-.25-.25l.03-.12L8.1 13h7.45c.75 0 1.41-.41 1.75-1.03L21.7 4H5.21l-.94-2H1zm16 16c-1.1 0-2 .9-2 2s.9 2 2 2 2-.9 2-2-.9-2-2-2z" fill="url(#primaryGradient)"/>
  </symbol>

  <!-- Icône Analytics -->
  <symbol id="icon-analytics" viewBox="0 0 24 24">
    <path d="M19 3H5c-1.1 0-2 .9-2 2v14c0 1.1.9 2 2 2h14c1.1 0 2-.9 2-2V5c0-1.1-.9-2-2-2zM9 17H7v-7h2v7zm4 0h-2V7h2v10zm4 0h-2v-4h2v4z" fill="url(#successGradient)"/>
  </symbol>

  <!-- Icône Paramètres -->
  <symbol id="icon-settings" viewBox="0 0 24 24">
    <path d="M19.14,12.94c0.04-0.3,0.06-0.61,0.06-0.94c0-0.32-0.02-0.64-0.07-0.94l2.03-1.58c0.18-0.14,0.23-0.41,0.12-0.61 l-1.92-3.32c-0.12-0.22-0.37-0.29-0.59-0.22l-2.39,0.96c-0.5-0.38-1.03-0.7-1.62-0.94L14.4,2.81c-0.04-0.24-0.24-0.41-0.48-0.41 h-3.84c-0.24,0-0.43,0.17-0.47,0.41L9.25,5.35C8.66,5.59,8.12,5.92,7.63,6.29L5.24,5.33c-0.22-0.08-0.47,0-0.59,0.22L2.74,8.87 C2.62,9.08,2.66,9.34,2.86,9.48l2.03,1.58C4.84,11.36,4.8,11.69,4.8,12s0.02,0.64,0.07,0.94l-2.03,1.58 c-0.18,0.14-0.23,0.41-0.12,0.61l1.92,3.32c0.12,0.22,0.37,0.29,0.59,0.22l2.39-0.96c0.5,0.38,1.03,0.7,1.62,0.94l0.36,2.54 c0.05,0.24,0.24,0.41,0.48,0.41h3.84c0.24,0,0.44-0.17,0.47-0.41l0.36-2.54c0.59-0.24,1.13-0.56,1.62-0.94l2.39,0.96 c0.22,0.08,0.47,0,0.59-0.22l1.92-3.32c0.12-0.22,0.07-0.47-0.12-0.61L19.14,12.94z M12,15.6c-1.98,0-3.6-1.62-3.6-3.6 s1.62-3.6,3.6-3.6s3.6,1.62,3.6,3.6S13.98,15.6,12,15.6z" fill="url(#primaryGradient)"/>
  </symbol>

  <!-- Icône Aide -->
  <symbol id="icon-help" viewBox="0 0 24 24">
    <path d="M12 2C6.48 2 2 6.48 2 12s4.48 10 10 10 10-4.48 10-10S17.52 2 12 2zm1 17h-2v-2h2v2zm2.07-7.75l-.9.92C13.45 12.9 13 13.5 13 15h-2v-.5c0-1.1.45-2.1 1.17-2.83l1.24-1.26c.37-.36.59-.86.59-1.41 0-1.1-.9-2-2-2s-2 .9-2 2H8c0-2.21 1.79-4 4-4s4 1.79 4 4c0 .88-.36 1.68-.93 2.25z" fill="url(#warningGradient)"/>
  </symbol>

  <!-- Icône Succès -->
  <symbol id="icon-success" viewBox="0 0 24 24">
    <path d="M12 2C6.48 2 2 6.48 2 12s4.48 10 10 10 10-4.48 10-10S17.52 2 12 2zm-2 15l-5-5 1.41-1.41L10 14.17l7.59-7.59L19 8l-9 9z" fill="url(#successGradient)"/>
  </symbol>

  <!-- Icône Erreur -->
  <symbol id="icon-error" viewBox="0 0 24 24">
    <path d="M12 2C6.47 2 2 6.47 2 12s4.47 10 10 10 10-4.47 10-10S17.53 2 12 2zm5 13.59L15.59 17 12 13.41 8.41 17 7 15.59 10.59 12 7 8.41 8.41 7 12 10.59 15.59 7 17 8.41 13.41 12 17 15.59z" fill="url(#dangerGradient)"/>
  </symbol>

  <!-- Icône Warning -->
  <symbol id="icon-warning" viewBox="0 0 24 24">
    <path d="M1 21h22L12 2 1 21zm12-3h-2v-2h2v2zm0-4h-2v-4h2v4z" fill="url(#warningGradient)"/>
  </symbol>

  <!-- Icône Upload -->
  <symbol id="icon-upload" viewBox="0 0 24 24">
    <path d="M14,2H6A2,2 0 0,0 4,4V20A2,2 0 0,0 6,22H18A2,2 0 0,0 20,20V8L14,2M18,20H6V4H13V9H18V20Z" fill="url(#primaryGradient)"/>
    <path d="M12 12l-4 4h3v4h2v-4h3l-4-4z" fill="url(#successGradient)"/>
  </symbol>

  <!-- Icône Download -->
  <symbol id="icon-download" viewBox="0 0 24 24">
    <path d="M14,2H6A2,2 0 0,0 4,4V20A2,2 0 0,0 6,22H18A2,2 0 0,0 20,20V8L14,2M18,20H6V4H13V9H18V20Z" fill="url(#primaryGradient)"/>
    <path d="M12 8l4 4h-3v4h-2v-4H8l4-4z" fill="url(#successGradient)"/>
  </symbol>

  <!-- Icône Email -->
  <symbol id="icon-email" viewBox="0 0 24 24">
    <path d="M20 4H4c-1.1 0-1.99.9-1.99 2L2 18c0 1.1.9 2 2 2h16c1.1 0 2-.9 2-2V6c0-1.1-.9-2-2-2zm0 4l-8 5-8-5V6l8 5 8-5v2z" fill="url(#primaryGradient)"/>
  </symbol>

  <!-- Icône Phone -->
  <symbol id="icon-phone" viewBox="0 0 24 24">
    <path d="M6.62 10.79c1.44 2.83 3.76 5.14 6.59 6.59l2.2-2.2c.27-.27.67-.36 1.02-.24 1.12.37 2.33.57 3.57.57.55 0 1 .45 1 1V20c0 .55-.45 1-1 1-9.39 0-17-7.61-17-17 0-.55.45-1 1-1h3.5c.55 0 1 .45 1 1 0 1.25.2 2.45.57 3.57.11.35.03.74-.25 1.02l-2.2 2.2z" fill="url(#successGradient)"/>
  </symbol>

  <!-- Icône Location -->
  <symbol id="icon-location" viewBox="0 0 24 24">
    <path d="M12 2C8.13 2 5 5.13 5 9c0 5.25 7 13 7 13s7-7.75 7-13c0-3.87-3.13-7-7-7zm0 9.5c-1.38 0-2.5-1.12-2.5-2.5s1.12-2.5 2.5-2.5 2.5 1.12 2.5 2.5-1.12 2.5-2.5 2.5z" fill="url(#dangerGradient)"/>
  </symbol>

  <!-- Icône Search -->
  <symbol id="icon-search" viewBox="0 0 24 24">
    <path d="M15.5 14h-.79l-.28-.27C15.41 12.59 16 11.11 16 9.5 16 5.91 13.09 3 9.5 3S3 5.91 3 9.5 5.91 16 9.5 16c1.61 0 3.09-.59 4.23-1.57l.27.28v.79l5 4.99L20.49 19l-4.99-5zm-6 0C7.01 14 5 11.99 5 9.5S7.01 5 9.5 5 14 7.01 14 9.5 11.99 14 9.5 14z" fill="url(#primaryGradient)"/>
  </symbol>

  <!-- Icône Filter -->
  <symbol id="icon-filter" viewBox="0 0 24 24">
    <path d="M10 18h4v-2h-4v2zM3 6v2h18V6H3zm3 7h12v-2H6v2z" fill="url(#primaryGradient)"/>
  </symbol>

  <!-- Icône Export -->
  <symbol id="icon-export" viewBox="0 0 24 24">
    <path d="M9 16h6v-6h4l-7-7-7 7h4zm-4 2h14v2H5z" fill="url(#successGradient)"/>
  </symbol>

  <!-- Icône Import -->
  <symbol id="icon-import" viewBox="0 0 24 24">
    <path d="M9 3H5c-1.1 0-2 .9-2 2v4h2V5h4V3zm10 0h-4v2h4v4h2V5c0-1.1-.9-2-2-2zm2 14h-2v4h-4v2h4c1.1 0 2-.9 2-2v-4zM5 19v-4H3v4c0 1.1.9 2 2 2h4v-2H5z" fill="url(#primaryGradient)"/>
    <path d="M12 8l-4 4h3v4h2v-4h3l-4-4z" fill="url(#successGradient)"/>
  </symbol>

</svg>