<?xml version="1.0" encoding="UTF-8" standalone="no"?>
<svg width="512" height="512" viewBox="0 0 512 512" fill="none" xmlns="http://www.w3.org/2000/svg">
  <circle cx="256" cy="256" r="256" fill="#FF6B00"/>
  <path d="M320.5 138.6C307.3 138.8 297.5 145.7 293.3 157.5C291.8 161.8 291.6 162.9 291.6 172.2V182.1L286.4 183.4C275.3 186.2 257 193.9 248.9 199.6C245.1 202.3 238.2 208.4 234.2 212.8C223.5 224.4 216.2 237.2 207.6 260.2L204.5 268.5H200.4C186.3 268.5 172.9 277.5 168.7 288.9C166.3 295.4 167 304.8 170.7 310.7C179.4 324.7 200.4 327.9 214.1 317.4C221.3 311.8 226.3 302.1 227.1 292.6C227.8 284.4 225.4 273.9 221.3 269.3L219.6 267.3L223.1 258.5C238.2 222 258.7 199.3 289.3 187.2L297.5 183.9V186.6C297.5 191.2 302.3 201 307.1 206.7C312.4 213.1 322.5 220 328.6 220C334.7 220 344.1 215.7 348.8 211.2C354.7 205.6 358.4 198.1 361.3 186.9C363.2 179.6 363.5 178.5 363.5 169.7C363.5 160.9 363.2 159.8 361.3 152.5C359.9 147.6 357.8 141.7 356.5 140C351.5 133.8 336.4 132 320.5 138.6Z" fill="black"/>
  <path d="M320.5 138.6C307.3 138.8 297.5 145.7 293.3 157.5C291.8 161.8 291.6 162.9 291.6 172.2V182.1L286.4 183.4C275.3 186.2 257 193.9 248.9 199.6C245.1 202.3 238.2 208.4 234.2 212.8C223.5 224.4 216.2 237.2 207.6 260.2L204.5 268.5H200.4C186.3 268.5 172.9 277.5 168.7 288.9C166.3 295.4 167 304.8 170.7 310.7C179.4 324.7 200.4 327.9 214.1 317.4C221.3 311.8 226.3 302.1 227.1 292.6C227.8 284.4 225.4 273.9 221.3 269.3L219.6 267.3L223.1 258.5C238.2 222 258.7 199.3 289.3 187.2L297.5 183.9V186.6C297.5 191.2 302.3 201 307.1 206.7C312.4 213.1 322.5 220 328.6 220C334.7 220 344.1 215.7 348.8 211.2C354.7 205.6 358.4 198.1 361.3 186.9C363.2 179.6 363.5 178.5 363.5 169.7C363.5 160.9 363.2 159.8 361.3 152.5C359.9 147.6 357.8 141.7 356.5 140C351.5 133.8 336.4 132 320.5 138.6Z" fill="white"/>
</svg>